<?xml version="1.0" encoding="utf-8"?>
<!-- Generator: Adobe Illustrator 19.2.1, SVG Export Plug-In . SVG Version: 6.00 Build 0)  -->
<svg version="1.1" id="Layer_1" xmlns="http://www.w3.org/2000/svg" xmlns:xlink="http://www.w3.org/1999/xlink" x="0px" y="0px"
	 viewBox="0 0 1235.8 1236.6" style="enable-background:new 0 0 1235.8 1236.6;" xml:space="preserve">
<style type="text/css">
	.st0{fill:#D3D0D8;}
</style>
<title>logo-hero</title>
<path class="st0" d="M1164.2,331.7c-5.5,8.4-12.6,15.8-18.1,24.1c-2.7,4.1-5,8.7-7.8,12.9s-6.6,7.7-8.6,12.1s-1.3,6.2-2.6,8.6
	c-3.1,6-8.3,11.9-12.9,18.1c-3.1,4.1-5,8.7-7.8,12.9s-6.5,7.4-9.5,11.2c-6.3,8-11.3,16.7-17.3,25s-12.6,15.1-18.1,23.3
	c-11.1,16.3-21.6,33.3-34.5,48.3c-12.9,15-28.6,27.2-41.4,42.3c-6.5,7.7-12.5,14.7-19.8,21.6c-14.2,13.3-26.9,28.1-40.5,43.1
	c-6.6,7.3-12.7,15.4-19.8,21.6c-3.9,3.4-7.6,5.9-11.2,9.5s-6,7.4-9.5,11.2c-6.6,7.2-16,12-22.4,19s-8.7,14.1-14.7,19.8
	c-4.3,4.2-11.2,9.1-16.4,12.9c-8.5,6.3-18.3,13.9-26.7,21.6c-13.7,12.4-27.7,23.9-41.4,36.2c-3.5,3.2-6.7,6.6-10.4,9.5
	s-8.1,4.9-11.2,7.8s-5.9,7.2-9.5,10.3c-13.9,12.2-28.9,23.2-44.8,32.8c-3.9,2.3-8.6,3.6-12.9,6c-9.9,5.7-17.6,15.2-29.3,20.7
	c-11,5-21.7,10.7-31.9,17.2c-5,3.3-9.5,7.1-14.7,10.3c-14.6,9.3-31.3,17.9-46.6,27.6c-19.8,12.6-35.8,26-56.9,42.3
	c-4.8,3.7-8.1,7.9-12.9,12.1s-9.4,5.5-14.7,9.5s-14.5,11.9-19,18.1c-2.8,3.9-3.9,2.8-1.7,6.9s11.3,5.7,20.7,4.3
	c3.7-0.5,7.6-3.1,12.9-5.2c15.1-5.8,34.5-10.9,47.4-18.1c2.7-1.5,5.5-2.1,7.8-3.4c7.7-4.5,13.4-11.7,21.6-16.4s15.3-9.2,23.3-13.8
	c3.9-2.2,7.3-5.3,11.2-7.8s7.8-4.2,11.2-6.9s6.8-6.1,10.3-8.6c7.1-5,15.9-7.9,24.1-12.9c1-0.6,1.5-2.1,2.6-2.6
	c10.6-5.1,19.7-13.4,29.3-20.7c7.2-5.4,15-9.6,22.4-14.7s16.9-8.1,24.2-12.9c9.6-6.4,17-16.8,26.7-24.1c7-5.3,15.4-8.8,22.4-13.8
	c9.6-6.8,18.4-15.8,28.5-23.3c5.1-3.8,10-7,14.7-11.2c12.7-11.4,25.4-25.7,39.7-36.2c10-7.4,21-13.6,29.3-21.6
	c4.2-4,7.2-9.6,11.2-13.8c12-12.7,27-22.3,38.8-34.5c4-4.1,6.6-9.4,10.3-13.8s8.5-8.2,10.4-13.8c13.2-5.3,20-15.9,28.5-26.7
	c1.9-2.5,4.3-4.4,6-6.9s2.4-6.1,4.3-8.6s8.8-5.7,12.1-9.5s3.8-9.1,6.9-12.9s7.8-5.9,10.3-9.5s4.5-9.5,7.8-13.8
	c3.2-4,6.6-7.7,10.3-11.2c7.4-7.4,13.1-15.3,19.8-23.3c3.1-3.7,5.3-8.8,8.6-12.9s7.5-7,10.3-11.2c2.9-4.3,6.1-8.3,9.5-12.1
	c3.5-3.8,6.7-7.8,9.5-12.1c3.7-6,5.3-13.4,9.5-19s9.4-9.8,12.9-15.5c2.1-3.5,2.9-6.6,5.2-9.5c5.3-6.8,13.7-14.6,19-23.3
	c3.7-6.1,5.8-12.9,9.5-19c10.3-16.6,22.4-33.3,31-51.7c35.4,72.4,56.9,158.7,56.9,266.5c-11.4,1.1-30.3,0.1-41.4,3.5
	c-3.1,0.9-6,3.3-9.5,4.3c-7.1,2.1-15.6,2.5-23.3,4.3s-14.4,4.5-21.6,6s-15.6,2.5-23.3,4.3c-10.2,2.3-22.6,3.8-34.5,6.9
	c-9.7,2.5-20.4,6.3-32.8,8.6c-8.7,1.6-17.3,2.2-21.6,6c-4.3,3.8-4.6,10.9-6,16.4s-3.4,12.6-0.9,18.1c3.8,3.9,8.1,0.5,12.1,0
	s9.2-0.3,13.8-0.9c16.7-2,33.1-7.6,48.3-12.1c3.9-1.2,7.8-1.9,11.2-3.4s6.2-4.1,9.5-5.2c6.6-2.1,14.2-1,20.7-2.6s14.4-5.8,21.6-7.8
	s15.9-2.5,25.9-3.5c15.8-1.5,30.6-11.6,47.4-9.5c4,3.2,1.1,8.5,0.9,12.1c-4.7,64.4-21.1,121-41.4,171.6
	c-63.8,159-181.6,278.1-338.9,342.4c-53.8,22-114.3,39.3-182.8,44.8c-69,5.4-138.3-0.7-205.3-18.1
	c-118.7-31.3-211.4-89.8-288.1-166.5C100.7,975,43.4,876.6,15.4,756C-0.2,687.9-4,617.6,4.2,548.2c8.3-69.1,25.5-127.6,48.3-178.5
	c46.1-103,113.7-187.6,202.7-251.8S454.7,8,595.8,0.5c36.6-1.9,73.3,1.7,106.9,6C799.3,19.1,883,54.9,949.4,97.1
	C1042.3,156.1,1112.1,234.1,1164.2,331.7z M982.2,192.8c-3.4,7.3-9.1,12.6-11.2,18.1c-5.2,13.8-4.7,25.1-4.3,40.5
	c0.6,24.2-3.2,54.7-0.9,74.2c0.8,6.7,3,12.1,3.4,17.2s-0.8,11.8,0,17.2c0.5,3.9,3.4,8.3,4.3,13.8c1.5,8.7-0.1,19.5,0.9,30.2
	c0.6,7,3.6,13.7,4.3,19.8s-0.6,12.7,0,18.1c1.4,12,7.8,28.3,17.3,27.6c3.5-0.3,7.4-3.5,9.5-9.5c0.8-2.2,0.1-5.3,0.9-8.6
	s2.6-5,2.6-7.8s-2.1-7.1-2.6-11.2c-0.8-7.2-1.2-15.5-1.7-23.3c-1-13.5,2.6-28.3,0.9-40.5c-1.1-7.9-5.3-14.9-6-22.4
	c-1.2-11.4,1.1-23.6,0-35.4c-0.4-4.4-2.2-8.8-2.6-12.9c-1.4-16.1-0.4-31.9,0.9-45.7c1.4-16,5.7-31.5,8.6-44.8
	c1.2-5.3,3.4-10.4,3.4-14.7s-3.9-13.7-4.3-14.7c-2.2-4.6-5.5-10-11.2-8.6c-9.1,2.3-8.8,16-12.2,23.5V192.8z M787.3,366.2
	c-4.5,2.4-17.7,7.3-19.8,10.4s-3.4,14.3-2.6,20.7s5.4,11.6,6,17.2s-1.9,11.2-2.6,17.2c-1.5,12.5,1.5,28.8,2.6,37.9
	c1.5,12.8,0.3,26.6,1.7,37.9c0.5,4.1,2.9,8.2,3.4,12.1c2.3,15.7,0.5,30.8,1.7,45.7c0.8,9,3.7,18.6,5.2,27.6
	c1.7,10.6,0.7,21.6,2.6,30.2c0.8,3.5,4.3,8.3,6,12.1c2.7,5.8,1.7,8.9,8.6,9.5c14.1,1.3,11.5-13.5,13.8-24.1
	c1.8-8.5,7.3-14.9,7.8-21.6c0.2-3.3-1.3-6.4-1.7-10.3s0.4-9.2,0-12.9c-1.4-11.4-6.4-20.9-8.6-30.2c-1.7-7.1-1.7-14.5-3.5-19.8
	s-4.5-6.9-5.2-11.2s0.4-11.7,0-18.1s-2.8-16-3.5-23.3c-0.5-5.8,0.3-11.7,0-17.2s-1.9-10.6-1.7-15.5c0.3-11.3,3.8-27.6,4.3-41.4
	c0.8-21.4,1.3-36.4-12.9-33.6C788.3,365.6,787.8,365.9,787.3,366.2z M666.6,762.9c1.5-3.5,0.3-8.6,1.7-12.9
	c2.1-6.1,7.8-11.4,8.6-17.2s-1.4-10.6-2.6-14.7c-4.7-16-5.6-34.5-9.5-51.7c-1.2-5.5-4.1-10.6-5.2-16.4c-2-10.2-2.4-21-5.2-29.3
	c-1.1-3.3-3.7-6.6-5.2-10.3c-4-9.8-8.1-16.1-12.1-24.1c-0.9-1.9-2.4-2.6-3.5-4.3c-4.1-6.5-6.7-14.5-12.9-16.4c0-0.5-0.1-1-0.9-0.9
	c-12.2,2.9-10.1,20.1-8.6,29.3c0.6,4.1,0.2,6.2,0.9,8.6c1.6,5.5,5.9,11.4,8.6,18.1s6,13.6,7,20.6s-1.2,18.4,0,27.6s6,14.6,6.9,19.8
	s-0.3,8.8,0,12.9c0.5,6.4,2.9,12.7,3.5,19c1.2,13-0.9,27.2,0,40.5C644.4,771.5,661.2,775.6,666.6,762.9z M1077.1,826.7
	c-9.5,0.5-19.5,5.9-31,6.9c-5.1,0.4-10.8-0.5-16.4,0c-4,0.4-8,2.4-12.1,2.6s-6.8-1.2-10.4-0.9s-6.9,2.1-10.3,2.6
	c-15.6,2.3-33.2,0.1-46.6,2.6c-5.3,1-10.1,4.3-14.7,5.2c-11.2,2.1-20.8,0.8-26.7,6.9s-12.7,31.3-5.2,38.8c5.8,5.8,19.8,0.5,25-0.9
	s11.7-2.2,15.5-3.5c14-4.5,26.1-11,36.2-13.8c7.5-2,13.9-0.9,21.6-1.7c9.7-1,19.4-4.7,29.3-6c11.6-1.6,23.6,0.7,35.4-0.9
	c4.5-0.6,10-4.1,16.4-5.2s11.9,0.1,17.2-2.6c10.2-5.1,12.5-20.1,4.3-28.5C1097.9,828.2,1084.6,826.4,1077.1,826.7L1077.1,826.7z
	 M721.7,955.3c-9.1-4.2-19.2-8.9-28.5-10.3c-16.7-2.7-20.9,10.1-25,20.7c-2.3,6-4.7,13.4-0.9,19c5.1,7.3,16.8,6,27.6,7.8
	c3.9,0.7,8.1,2.6,12.1,3.5c14.8,3.2,25.3,4.9,37.1,7.8c8,1.9,16.3,3,24.1,5.2s16.9,5.4,25,6.9c17.3,3.1,31.8-1,53.5-0.9
	c16.3,0.1,42.9,4.2,42.3-10.3c-0.2-5.2-5.5-6.8-11.2-10.3s-9.3-6.7-13.8-8.6s-11.1-2.3-16.4-3.5s-11.7-3.7-16.4-4.3
	c-13.6-1.9-28.8-2.4-42.3-4.3s-26.4-5.8-39.7-6.9C741.3,962.4,731.4,959.7,721.7,955.3z"/>
</svg>
